<svg width="24" height="24" viewBox="0 0 24 24" fill="none" xmlns="http://www.w3.org/2000/svg">
<path d="M21.3333 0H2.66667C1.95942 0 1.28115 0.280951 0.781048 0.781048C0.280951 1.28115 0 1.95942 0 2.66667V21.3333C0 22.0406 0.280951 22.7189 0.781048 23.219C1.28115 23.719 1.95942 24 2.66667 24H21.3333C22.8 24 24 22.8 24 21.3333V2.66667C24 1.95942 23.719 1.28115 23.219 0.781048C22.7189 0.280951 22.0406 0 21.3333 0ZM21.3333 21.3333H2.66667V5.33333H21.3333V21.3333ZM18.6667 12H5.33333V9.33333H18.6667V12ZM13.3333 17.3333H5.33333V14.6667H13.3333V17.3333Z" fill="black"/>
<path d="M17.1816 15.6925C17.2231 15.5679 17.3992 15.5679 17.4407 15.6925L17.6843 16.4242C17.738 16.5851 17.8283 16.7312 17.9483 16.851C18.0682 16.9709 18.2144 17.0612 18.3752 17.1147L19.1065 17.3584C19.2312 17.3999 19.2312 17.5759 19.1065 17.6175L18.3749 17.8611C18.214 17.9148 18.0679 18.0051 17.948 18.125C17.8282 18.2449 17.7379 18.3911 17.6843 18.552L17.4407 19.2833C17.4318 19.3106 17.4144 19.3344 17.3911 19.3512C17.3679 19.3681 17.3399 19.3771 17.3111 19.3771C17.2824 19.3771 17.2544 19.3681 17.2312 19.3512C17.2079 19.3344 17.1905 19.3106 17.1816 19.2833L16.9379 18.5516C16.8844 18.3908 16.7941 18.2447 16.6742 18.1249C16.5544 18.005 16.4082 17.9147 16.2474 17.8611L15.5158 17.6175C15.4885 17.6085 15.4647 17.5912 15.4478 17.5679C15.431 17.5446 15.4219 17.5166 15.4219 17.4879C15.4219 17.4592 15.431 17.4312 15.4478 17.4079C15.4647 17.3847 15.4885 17.3673 15.5158 17.3584L16.2474 17.1147C16.4082 17.0611 16.5544 16.9708 16.6742 16.851C16.7941 16.7311 16.8844 16.585 16.9379 16.4242L17.1816 15.6925ZM15.7224 13.7665C15.7278 13.7501 15.7382 13.7359 15.7522 13.7258C15.7662 13.7157 15.783 13.7102 15.8002 13.7102C15.8174 13.7102 15.8342 13.7157 15.8482 13.7258C15.8622 13.7359 15.8726 13.7501 15.878 13.7665L16.0242 14.2054C16.0895 14.401 16.2429 14.5544 16.4386 14.6198L16.8775 14.7659C16.8939 14.7714 16.9081 14.7818 16.9182 14.7958C16.9283 14.8097 16.9337 14.8265 16.9337 14.8438C16.9337 14.861 16.9283 14.8778 16.9182 14.8918C16.9081 14.9057 16.8939 14.9162 16.8775 14.9216L16.4386 15.0678C16.342 15.0998 16.2543 15.154 16.1823 15.2259C16.1104 15.2978 16.0562 15.3856 16.0242 15.4821L15.878 15.9211C15.8726 15.9374 15.8622 15.9517 15.8482 15.9617C15.8342 15.9718 15.8174 15.9773 15.8002 15.9773C15.783 15.9773 15.7662 15.9718 15.7522 15.9617C15.7382 15.9517 15.7278 15.9374 15.7224 15.9211L15.5762 15.4821C15.5442 15.3856 15.49 15.2978 15.4181 15.2259C15.3461 15.154 15.2584 15.0998 15.1618 15.0678L14.7229 14.9216C14.7065 14.9162 14.6923 14.9057 14.6822 14.8918C14.6721 14.8778 14.6667 14.861 14.6667 14.8438C14.6667 14.8265 14.6721 14.8097 14.6822 14.7958C14.6923 14.7818 14.7065 14.7714 14.7229 14.7659L15.1618 14.6198C15.2584 14.5877 15.3461 14.5336 15.4181 14.4616C15.49 14.3897 15.5442 14.3019 15.5762 14.2054L15.7224 13.7665ZM18.3926 13.3702C18.3963 13.3594 18.4033 13.3501 18.4126 13.3435C18.4219 13.3369 18.433 13.3334 18.4444 13.3334C18.4557 13.3334 18.4668 13.3369 18.4761 13.3435C18.4854 13.3501 18.4924 13.3594 18.4961 13.3702L18.5936 13.6626C18.637 13.7933 18.7394 13.8956 18.8701 13.9391L19.1624 14.0365C19.1732 14.0403 19.1825 14.0472 19.1891 14.0565C19.1957 14.0658 19.1993 14.0769 19.1993 14.0883C19.1993 14.0997 19.1957 14.1108 19.1891 14.12C19.1825 14.1293 19.1732 14.1363 19.1624 14.14L18.8701 14.2375C18.8057 14.259 18.7472 14.2952 18.6993 14.3432C18.6513 14.3912 18.6151 14.4496 18.5936 14.514L18.4961 14.8064C18.4924 14.8171 18.4854 14.8264 18.4761 14.833C18.4668 14.8396 18.4557 14.8432 18.4444 14.8432C18.433 14.8432 18.4219 14.8396 18.4126 14.833C18.4033 14.8264 18.3963 14.8171 18.3926 14.8064L18.2952 14.514C18.2736 14.4496 18.2374 14.3912 18.1895 14.3432C18.1415 14.2952 18.083 14.259 18.0186 14.2375L17.7267 14.14C17.7159 14.1363 17.7066 14.1293 17.7 14.12C17.6934 14.1108 17.6898 14.0997 17.6898 14.0883C17.6898 14.0769 17.6934 14.0658 17.7 14.0565C17.7066 14.0472 17.7159 14.0403 17.7267 14.0365L18.019 13.9391C18.1497 13.8956 18.2521 13.7933 18.2955 13.6626L18.3926 13.3702Z" fill="black"/>
</svg>
