<svg width="12" height="12" viewBox="0 0 12 12" fill="none" xmlns="http://www.w3.org/2000/svg">
<g clip-path="url(#clip0_415_6)">
<path d="M9.67049 2.29549L7.70451 0.329508C7.49353 0.118529 7.20738 1.56018e-06 6.90902 0H2.125C1.50367 0 1 0.503672 1 1.125V10.875C1 11.4963 1.50367 12 2.125 12H8.875C9.49633 12 10 11.4963 10 10.875V3.09098C10 2.79262 9.88147 2.50647 9.67049 2.29549ZM8.78402 3H7V1.21598L8.78402 3ZM2.125 10.875V1.125H5.875V3.5625C5.875 3.87316 6.12684 4.125 6.4375 4.125H8.875V10.875H2.125Z" fill="black"/>
<path d="M6.79787 5H3.89894C3.67896 5 3.5 5.17896 3.5 5.39894V9.60106C3.5 9.82104 3.67896 10 3.89894 10H6.79787C7.01785 10 7.19681 9.82104 7.19681 9.60106V5.39894C7.19681 5.17896 7.01785 5 6.79787 5ZM7.03723 9.60106C7.03723 9.73305 6.92985 9.84043 6.79787 9.84043H3.89894C3.76695 9.84043 3.65957 9.73305 3.65957 9.60106V5.39894C3.65957 5.26695 3.76695 5.15957 3.89894 5.15957H6.79787C6.92985 5.15957 7.03723 5.26695 7.03723 5.39894V9.60106Z" fill="black"/>
<path d="M6.79808 5.31915L4.53744 5.31891C4.49337 5.31891 4.45766 5.35462 4.45764 5.39869C4.45764 5.44275 4.49336 5.47847 4.53742 5.47848L6.71828 5.47872V9.20213H3.97868L3.97892 5.47848H4.21828C4.26235 5.47848 4.29807 5.44276 4.29807 5.3987C4.29807 5.35463 4.26235 5.31891 4.21828 5.31891H3.89913C3.85507 5.31891 3.81935 5.35462 3.81935 5.3987L3.81909 9.28192C3.81909 9.30308 3.8275 9.32338 3.84245 9.33835C3.85742 9.35331 3.87771 9.36172 3.89888 9.36172H6.79807C6.84215 9.36172 6.87786 9.32599 6.87786 9.28193V5.39895C6.87786 5.35488 6.84215 5.31915 6.79808 5.31915Z" fill="black"/>
<path d="M5.50807 9.52127H5.18892C5.14485 9.52127 5.10913 9.55699 5.10913 9.60106C5.10913 9.64512 5.14485 9.68085 5.18892 9.68085H5.50807C5.55214 9.68085 5.58785 9.64512 5.58785 9.60106C5.58785 9.55699 5.55214 9.52127 5.50807 9.52127Z" fill="black"/>
<path d="M6.37253 5.74445H4.32466C4.2806 5.74445 4.24487 5.78017 4.24487 5.82423C4.24487 5.8683 4.2806 5.90402 4.32466 5.90402H6.37253C6.41661 5.90402 6.45232 5.8683 6.45232 5.82423C6.45232 5.78017 6.41661 5.74445 6.37253 5.74445Z" fill="black"/>
<path d="M6.37253 6.12344H4.32466C4.2806 6.12344 4.24487 6.15917 4.24487 6.20323C4.24487 6.24729 4.2806 6.28302 4.32466 6.28302H6.37253C6.41661 6.28302 6.45232 6.24729 6.45232 6.20323C6.45232 6.15917 6.41661 6.12344 6.37253 6.12344Z" fill="black"/>
<path d="M4.32466 6.66205H5.3486C5.39267 6.66205 5.42838 6.62632 5.42838 6.58226C5.42838 6.5382 5.39267 6.50247 5.3486 6.50247H4.32466C4.2806 6.50247 4.24487 6.5382 4.24487 6.58226C4.24487 6.62632 4.2806 6.66205 4.32466 6.66205Z" fill="black"/>
<path d="M6.37253 6.8815H4.32466C4.2806 6.8815 4.24487 6.91722 4.24487 6.96129C4.24487 7.00535 4.2806 7.04107 4.32466 7.04107H6.37253C6.41661 7.04107 6.45232 7.00535 6.45232 6.96129C6.45232 6.91722 6.41661 6.8815 6.37253 6.8815Z" fill="black"/>
<path d="M6.37253 7.2605H4.32466C4.2806 7.2605 4.24487 7.29622 4.24487 7.34029C4.24487 7.38435 4.2806 7.42007 4.32466 7.42007H6.37253C6.41661 7.42007 6.45232 7.38435 6.45232 7.34029C6.45232 7.29622 6.41661 7.2605 6.37253 7.2605Z" fill="black"/>
<path d="M6.37253 7.63953H4.32466C4.2806 7.63953 4.24487 7.67525 4.24487 7.71931C4.24487 7.76338 4.2806 7.7991 4.32466 7.7991H6.37253C6.41661 7.7991 6.45232 7.76338 6.45232 7.71931C6.45232 7.67525 6.41661 7.63953 6.37253 7.63953Z" fill="black"/>
<path d="M6.37253 8.01855H4.32466C4.2806 8.01855 4.24487 8.05428 4.24487 8.09834C4.24487 8.14241 4.2806 8.17813 4.32466 8.17813H6.37253C6.41661 8.17813 6.45232 8.14241 6.45232 8.09834C6.45232 8.05428 6.41661 8.01855 6.37253 8.01855Z" fill="black"/>
<path d="M6.45232 8.47737C6.45232 8.43331 6.41661 8.39758 6.37253 8.39758H4.32466C4.2806 8.39758 4.24487 8.43331 4.24487 8.47737C4.24487 8.52143 4.2806 8.55716 4.32466 8.55716H6.37253C6.41661 8.55716 6.45232 8.52143 6.45232 8.47737Z" fill="black"/>
<path d="M4.32466 8.77658C4.2806 8.77658 4.24487 8.8123 4.24487 8.85637C4.24487 8.90043 4.2806 8.93616 4.32466 8.93616H5.3486C5.39267 8.93616 5.42838 8.90043 5.42838 8.85637C5.42838 8.8123 5.39267 8.77658 5.3486 8.77658H4.32466Z" fill="black"/>
</g>
<defs>
<clipPath id="clip0_415_6">
<rect width="12" height="12" fill="white"/>
</clipPath>
</defs>
</svg>
