<svg width="20" height="22" viewBox="0 0 20 22" fill="none" xmlns="http://www.w3.org/2000/svg">
<path d="M14.25 19.25V20.9688C14.25 21.5383 13.7883 22 13.2188 22H1.53125C0.961699 22 0.5 21.5383 0.5 20.9688V5.15625C0.5 4.5867 0.961699 4.125 1.53125 4.125H4.625V16.8438C4.625 18.1706 5.70442 19.25 7.03125 19.25H14.25ZM14.25 4.46875V0H7.03125C6.4617 0 6 0.461699 6 1.03125V16.8438C6 17.4133 6.4617 17.875 7.03125 17.875H18.7188C19.2883 17.875 19.75 17.4133 19.75 16.8438V5.5H15.2812C14.7141 5.5 14.25 5.03594 14.25 4.46875ZM19.448 3.13547L16.6145 0.302027C16.4211 0.108643 16.1588 1.42998e-06 15.8853 0L15.625 0V4.125H19.75V3.86465C19.75 3.59116 19.6414 3.32887 19.448 3.13547Z" fill="currentColor"/>
</svg>
