<!-- © [2025] EDT&Partners. Licensed under CC BY 4.0. -->
<svg width="22" height="22" viewBox="0 0 22 22" fill="none" xmlns="http://www.w3.org/2000/svg">
<path d="M11 4.51172C6.62578 4.51172 2.90469 7.19297 1.375 11C2.90469 14.807 6.62578 17.4883 11 17.4883C15.3742 17.4883 19.0953 14.807 20.625 11C19.0953 7.19297 15.3742 4.51172 11 4.51172ZM11 15.327C8.59375 15.327 6.62578 13.3805 6.62578 11C6.62578 8.61953 8.59375 6.67305 11 6.67305C13.4062 6.67305 15.3742 8.61953 15.3742 11C15.3742 13.3805 13.4062 15.327 11 15.327ZM11 8.40469C9.55625 8.40469 8.37461 9.57344 8.37461 11C8.37461 12.4266 9.55625 13.5953 11 13.5953C12.4437 13.5953 13.6254 12.4266 13.6254 11C13.6254 9.57344 12.4437 8.40469 11 8.40469Z" fill="currentColor"/>
</svg>
