<svg width="135" height="43" viewBox="0 0 135 43" fill="none" xmlns="http://www.w3.org/2000/svg">
<path d="M0.50071 42.2273V37.7273H0.869318V38.3516H0.914062C0.959517 38.2536 1.02202 38.1534 1.10156 38.0511C1.18111 37.9474 1.28622 37.8601 1.4169 37.7891C1.54901 37.718 1.7152 37.6825 1.91548 37.6825C2.18537 37.6825 2.42116 37.7536 2.62287 37.8956C2.82599 38.0362 2.98366 38.2337 3.09588 38.4879C3.20952 38.7408 3.26634 39.0355 3.26634 39.3722C3.26634 39.7102 3.20952 40.0064 3.09588 40.2607C2.98366 40.5149 2.82599 40.7131 2.62287 40.8551C2.42116 40.9972 2.18679 41.0682 1.91974 41.0682C1.7223 41.0682 1.55682 41.0327 1.4233 40.9616C1.29119 40.8906 1.18395 40.8033 1.10156 40.6996C1.0206 40.5945 0.958097 40.4922 0.914062 40.3928H0.879972V42.2273H0.50071ZM0.87571 39.3658C0.87571 39.63 0.914773 39.8643 0.992898 40.0689C1.07244 40.272 1.18608 40.4318 1.33381 40.5483C1.48295 40.6634 1.66335 40.7209 1.875 40.7209C2.09233 40.7209 2.27557 40.6612 2.42472 40.5419C2.57528 40.4212 2.68963 40.2585 2.76776 40.054C2.8473 39.8494 2.88707 39.62 2.88707 39.3658C2.88707 39.1143 2.84801 38.8878 2.76989 38.6861C2.69318 38.4844 2.57955 38.3246 2.42898 38.2067C2.27841 38.0874 2.09375 38.0277 1.875 38.0277C1.66193 38.0277 1.48082 38.0852 1.33168 38.2003C1.18253 38.3139 1.06889 38.4716 0.990767 38.6733C0.914062 38.8736 0.87571 39.1044 0.87571 39.3658ZM5.37038 41.0682C5.08771 41.0682 4.83771 40.9964 4.62038 40.853C4.40447 40.7095 4.23544 40.5114 4.11328 40.2585C3.99112 40.0043 3.93004 39.7109 3.93004 39.3786C3.93004 39.0433 3.99112 38.7486 4.11328 38.4943C4.23544 38.2386 4.40447 38.0398 4.62038 37.8977C4.83771 37.7543 5.08771 37.6825 5.37038 37.6825C5.65305 37.6825 5.90234 37.7543 6.11825 37.8977C6.33416 38.0412 6.5032 38.2401 6.62536 38.4943C6.74893 38.7486 6.81072 39.0433 6.81072 39.3786C6.81072 39.7109 6.74964 40.0043 6.62749 40.2585C6.50533 40.5114 6.33558 40.7095 6.11825 40.853C5.90234 40.9964 5.65305 41.0682 5.37038 41.0682ZM5.37038 40.7209C5.59766 40.7209 5.79013 40.6598 5.9478 40.5376C6.10547 40.4155 6.22479 40.2528 6.30575 40.0497C6.38814 39.8466 6.42933 39.6229 6.42933 39.3786C6.42933 39.1342 6.38814 38.9098 6.30575 38.7053C6.22479 38.5007 6.10547 38.3366 5.9478 38.2131C5.79013 38.0895 5.59766 38.0277 5.37038 38.0277C5.14453 38.0277 4.95206 38.0895 4.79297 38.2131C4.6353 38.3366 4.51527 38.5007 4.43288 38.7053C4.35192 38.9098 4.31143 39.1342 4.31143 39.3786C4.31143 39.6229 4.35192 39.8466 4.43288 40.0497C4.51527 40.2528 4.6353 40.4155 4.79297 40.5376C4.95064 40.6598 5.14311 40.7209 5.37038 40.7209ZM8.25852 41L7.26989 37.7273H7.67045L8.44602 40.4268H8.47372L9.24716 37.7273H9.64986L10.4169 40.4205H10.4467L11.2223 37.7273H11.6229L10.6342 41H10.2422L9.46662 38.3175H9.42614L8.65057 41H8.25852ZM13.5719 41.0682C13.2665 41.0682 13.0023 40.9972 12.7793 40.8551C12.5563 40.7116 12.3837 40.5135 12.2615 40.2607C12.1408 40.0064 12.0804 39.7138 12.0804 39.3828C12.0804 39.0533 12.1408 38.7607 12.2615 38.505C12.3837 38.2479 12.552 38.0469 12.7665 37.902C12.9824 37.7557 13.2317 37.6825 13.5144 37.6825C13.6919 37.6825 13.8631 37.7152 14.0279 37.7805C14.1926 37.8445 14.3404 37.9432 14.4711 38.0767C14.6032 38.2088 14.7076 38.3757 14.7843 38.5774C14.861 38.7777 14.8993 39.0149 14.8993 39.2891V39.4766H12.3425V39.142H14.5115C14.5115 38.9318 14.4689 38.7429 14.3837 38.5753C14.2999 38.4062 14.1827 38.2727 14.0321 38.1747C13.883 38.0767 13.7104 38.0277 13.5144 38.0277C13.307 38.0277 13.1245 38.0831 12.9668 38.1939C12.8091 38.3047 12.6855 38.451 12.5961 38.6328C12.508 38.8146 12.4632 39.0135 12.4618 39.2294V39.4297C12.4618 39.6896 12.5066 39.9169 12.5961 40.1115C12.687 40.3047 12.8155 40.4545 12.9817 40.5611C13.1479 40.6676 13.3446 40.7209 13.5719 40.7209C13.7267 40.7209 13.8624 40.6967 13.9789 40.6484C14.0968 40.6001 14.1955 40.5355 14.275 40.4545C14.356 40.3722 14.4171 40.282 14.4583 40.1839L14.8184 40.3011C14.7686 40.4389 14.687 40.5661 14.5733 40.6825C14.4611 40.799 14.3205 40.8928 14.1515 40.9638C13.9838 41.0334 13.7907 41.0682 13.5719 41.0682ZM15.7351 41V37.7273H16.1037V38.2301H16.1314C16.1967 38.0653 16.3104 37.9325 16.4723 37.8317C16.6357 37.7294 16.8203 37.6783 17.0263 37.6783C17.0575 37.6783 17.0923 37.679 17.1307 37.6804C17.169 37.6818 17.201 37.6832 17.2266 37.6847V38.0703C17.2095 38.0675 17.1797 38.0632 17.1371 38.0575C17.0945 38.0518 17.0483 38.049 16.9986 38.049C16.8281 38.049 16.6761 38.0852 16.5426 38.1577C16.4105 38.2287 16.3061 38.3274 16.2294 38.4538C16.1527 38.5803 16.1143 38.7244 16.1143 38.8864V41H15.7351ZM19.0973 41.0682C18.7919 41.0682 18.5277 40.9972 18.3047 40.8551C18.0817 40.7116 17.9091 40.5135 17.7869 40.2607C17.6662 40.0064 17.6058 39.7138 17.6058 39.3828C17.6058 39.0533 17.6662 38.7607 17.7869 38.505C17.9091 38.2479 18.0774 38.0469 18.2919 37.902C18.5078 37.7557 18.7571 37.6825 19.0398 37.6825C19.2173 37.6825 19.3885 37.7152 19.5533 37.7805C19.718 37.8445 19.8658 37.9432 19.9964 38.0767C20.1286 38.2088 20.233 38.3757 20.3097 38.5774C20.3864 38.7777 20.4247 39.0149 20.4247 39.2891V39.4766H17.8679V39.142H20.0369C20.0369 38.9318 19.9943 38.7429 19.9091 38.5753C19.8253 38.4062 19.7081 38.2727 19.5575 38.1747C19.4084 38.0767 19.2358 38.0277 19.0398 38.0277C18.8324 38.0277 18.6499 38.0831 18.4922 38.1939C18.3345 38.3047 18.2109 38.451 18.1214 38.6328C18.0334 38.8146 17.9886 39.0135 17.9872 39.2294V39.4297C17.9872 39.6896 18.032 39.9169 18.1214 40.1115C18.2124 40.3047 18.3409 40.4545 18.5071 40.5611C18.6733 40.6676 18.87 40.7209 19.0973 40.7209C19.2521 40.7209 19.3878 40.6967 19.5043 40.6484C19.6222 40.6001 19.7209 40.5355 19.8004 40.4545C19.8814 40.3722 19.9425 40.282 19.9837 40.1839L20.3438 40.3011C20.294 40.4389 20.2124 40.5661 20.0987 40.6825C19.9865 40.799 19.8459 40.8928 19.6768 40.9638C19.5092 41.0334 19.3161 41.0682 19.0973 41.0682ZM22.4387 41.0682C22.1703 41.0682 21.9352 40.9972 21.7335 40.8551C21.5318 40.7131 21.3741 40.5149 21.2605 40.2607C21.1483 40.0064 21.0922 39.7102 21.0922 39.3722C21.0922 39.0355 21.1483 38.7408 21.2605 38.4879C21.3741 38.2337 21.5325 38.0362 21.7356 37.8956C21.9387 37.7536 22.1752 37.6825 22.4451 37.6825C22.644 37.6825 22.8095 37.718 22.9416 37.7891C23.0737 37.8587 23.1795 37.9453 23.2591 38.049C23.3386 38.1527 23.4004 38.2536 23.4444 38.3516H23.4785V36.6364H23.8599V41H23.4892V40.3928H23.4444C23.4004 40.4922 23.3379 40.5945 23.2569 40.6996C23.176 40.8033 23.0687 40.8906 22.9352 40.9616C22.8031 41.0327 22.6376 41.0682 22.4387 41.0682ZM22.4835 40.7209C22.6951 40.7209 22.8755 40.6634 23.0247 40.5483C23.1738 40.4318 23.2875 40.272 23.3656 40.0689C23.4451 39.8643 23.4849 39.63 23.4849 39.3658C23.4849 39.1044 23.4458 38.8736 23.3677 38.6733C23.2896 38.4716 23.176 38.3139 23.0268 38.2003C22.8777 38.0852 22.6966 38.0277 22.4835 38.0277C22.2647 38.0277 22.0801 38.0874 21.9295 38.2067C21.7804 38.3246 21.6667 38.4844 21.5886 38.6861C21.5119 38.8878 21.4735 39.1143 21.4735 39.3658C21.4735 39.62 21.5126 39.8494 21.5907 40.054C21.6689 40.2585 21.7825 40.4212 21.9316 40.5419C22.0822 40.6612 22.2662 40.7209 22.4835 40.7209ZM26.7065 41V36.6364H27.0879V38.3516H27.122C27.1646 38.2536 27.2257 38.1527 27.3052 38.049C27.3862 37.9453 27.492 37.8587 27.6227 37.7891C27.7548 37.718 27.921 37.6825 28.1213 37.6825C28.3897 37.6825 28.6255 37.7536 28.8287 37.8956C29.0318 38.0362 29.1902 38.2337 29.3038 38.4879C29.4174 38.7408 29.4743 39.0355 29.4743 39.3722C29.4743 39.7102 29.4174 40.0064 29.3038 40.2607C29.1916 40.5149 29.0339 40.7131 28.8308 40.8551C28.6291 40.9972 28.3947 41.0682 28.1277 41.0682C27.9288 41.0682 27.7626 41.0327 27.6291 40.9616C27.497 40.8906 27.3904 40.8033 27.3095 40.6996C27.2285 40.5945 27.166 40.4922 27.122 40.3928H27.0751V41H26.7065ZM27.0815 39.3658C27.0815 39.63 27.1206 39.8643 27.1987 40.0689C27.2782 40.272 27.3919 40.4318 27.5396 40.5483C27.6887 40.6634 27.8691 40.7209 28.0808 40.7209C28.2981 40.7209 28.4821 40.6612 28.6326 40.5419C28.7832 40.4212 28.8975 40.2585 28.9757 40.054C29.0538 39.8494 29.0929 39.62 29.0929 39.3658C29.0929 39.1143 29.0538 38.8878 28.9757 38.6861C28.899 38.4844 28.7853 38.3246 28.6348 38.2067C28.4842 38.0874 28.2995 38.0277 28.0808 38.0277C27.8677 38.0277 27.6866 38.0852 27.5375 38.2003C27.3897 38.3139 27.2768 38.4716 27.1987 38.6733C27.1206 38.8736 27.0815 39.1044 27.0815 39.3658ZM30.4544 42.2273C30.3791 42.2273 30.3088 42.2202 30.2434 42.206C30.1781 42.1918 30.1262 42.1761 30.0879 42.1591L30.1902 41.8246C30.3194 41.8643 30.4345 41.8786 30.5353 41.8672C30.6362 41.8572 30.7257 41.8118 30.8038 41.7308C30.8819 41.6513 30.9515 41.5291 31.0126 41.3643L31.1319 41.032L29.9281 37.7273H30.3393L31.3109 40.4993H31.3407L32.3123 37.7273H32.7235L31.3386 41.5178C31.2804 41.6754 31.2086 41.8068 31.1234 41.9119C31.0382 42.0185 30.9395 42.0973 30.8272 42.1484C30.7164 42.201 30.5922 42.2273 30.4544 42.2273ZM35.2319 41V36.6364H37.7631V36.9943H35.6303V38.6371H37.6289V38.995H35.6303V40.642H37.8058V41H35.2319ZM40.0728 41H38.7944V36.6364H40.1495C40.5657 36.6364 40.9215 36.723 41.217 36.8963C41.5138 37.0696 41.7411 37.3182 41.8988 37.642C42.0565 37.9659 42.1353 38.3544 42.1353 38.8075C42.1353 39.2649 42.0543 39.6577 41.8924 39.9858C41.7319 40.3125 41.4975 40.5632 41.1893 40.7379C40.8825 40.9126 40.5103 41 40.0728 41ZM39.1928 40.642H40.0494C40.4244 40.642 40.7383 40.5682 40.9911 40.4205C41.244 40.2727 41.4336 40.0618 41.56 39.7876C41.6864 39.5135 41.7496 39.1868 41.7496 38.8075C41.7482 38.4311 41.6857 38.1072 41.5621 37.8359C41.44 37.5646 41.2582 37.3565 41.0167 37.2116C40.7766 37.0668 40.4798 36.9943 40.1261 36.9943H39.1928V40.642ZM42.6552 36.9943V36.6364H45.8192V36.9943H44.4364V41H44.038V36.9943H42.6552ZM49.4925 41.0597C49.2241 41.0597 48.9897 41.0078 48.7894 40.9041C48.5891 40.799 48.4336 40.6562 48.3228 40.4759C48.212 40.2955 48.1566 40.0916 48.1566 39.8643C48.1566 39.6996 48.19 39.5511 48.2567 39.419C48.3249 39.2855 48.4229 39.1591 48.5508 39.0398C48.6786 38.919 48.8335 38.794 49.0153 38.6648L49.6481 38.1939C49.7987 38.0859 49.913 37.9801 49.9911 37.8764C50.0707 37.7713 50.1104 37.6428 50.1104 37.4908C50.1104 37.3445 50.055 37.2138 49.9442 37.0987C49.8349 36.9822 49.6928 36.924 49.5181 36.924C49.396 36.924 49.2866 36.9545 49.19 37.0156C49.0948 37.0767 49.0188 37.1562 48.962 37.2543C48.9066 37.3509 48.8789 37.4524 48.8789 37.5589C48.8789 37.6584 48.9045 37.7585 48.9556 37.8594C49.0067 37.9588 49.0756 38.0639 49.1623 38.1747C49.2489 38.2841 49.3455 38.4048 49.4521 38.5369L51.4464 41H50.9862L49.2475 38.8672C49.1012 38.6882 48.9712 38.5284 48.8576 38.3878C48.744 38.2457 48.6545 38.1094 48.5891 37.9787C48.5238 37.8466 48.4911 37.7053 48.4911 37.5547C48.4911 37.3686 48.5344 37.2031 48.6211 37.0582C48.7077 36.9119 48.8271 36.7969 48.979 36.7131C49.1325 36.6293 49.3079 36.5874 49.5053 36.5874C49.707 36.5874 49.8817 36.6286 50.0295 36.7109C50.1786 36.7933 50.2937 36.9027 50.3746 37.0391C50.457 37.1754 50.4982 37.326 50.4982 37.4908C50.4982 37.6882 50.4471 37.8629 50.3448 38.0149C50.244 38.1669 50.0969 38.3161 49.9038 38.4624L49.1112 39.0547C48.8938 39.218 48.7447 39.3693 48.6637 39.5085C48.5827 39.6477 48.5423 39.7663 48.5423 39.8643C48.5423 40.0178 48.582 40.1591 48.6616 40.2884C48.7411 40.4176 48.8512 40.5213 48.9918 40.5994C49.1339 40.6776 49.2965 40.7173 49.4798 40.7188C49.6616 40.7173 49.8327 40.6811 49.9933 40.6101C50.1538 40.5376 50.2972 40.4347 50.4237 40.3011C50.5515 40.1676 50.6538 40.0078 50.7305 39.8217C50.8086 39.6357 50.854 39.4283 50.8668 39.1996L51.2354 39.2038C51.2298 39.4382 51.1978 39.6371 51.1396 39.8004C51.0827 39.9624 51.0174 40.0959 50.9435 40.201C50.8697 40.3061 50.805 40.3906 50.7496 40.4545C50.734 40.4759 50.7184 40.4972 50.7028 40.5185C50.6871 40.5398 50.6708 40.5611 50.6538 40.5824C50.5117 40.7386 50.3349 40.8572 50.1232 40.9382C49.913 41.0192 49.7028 41.0597 49.4925 41.0597ZM53.8242 41H53.4066L54.994 36.6364H55.4201L57.0075 41H56.5898L55.2219 37.1541H55.1921L53.8242 41ZM54.1246 39.3274H56.2894V39.6854H54.1246V39.3274ZM58.174 41L56.9787 36.6364H57.3835L58.3722 40.3885H58.4062L59.3949 36.6364H59.8551L60.8438 40.3885H60.8778L61.8665 36.6364H62.2734L61.0781 41H60.652L59.6399 37.299H59.6122L58.6001 41H58.174ZM65.3629 37.7273C65.3388 37.4844 65.2315 37.2912 65.0412 37.1477C64.8509 37.0043 64.6115 36.9325 64.3232 36.9325C64.12 36.9325 63.9411 36.9673 63.7862 37.0369C63.6328 37.1065 63.5121 37.2031 63.424 37.3267C63.3374 37.4489 63.294 37.5881 63.294 37.7443C63.294 37.8594 63.3189 37.9602 63.3686 38.0469C63.4183 38.1335 63.4851 38.2081 63.5689 38.2706C63.6541 38.3317 63.7479 38.3842 63.8501 38.4283C63.9538 38.4723 64.0582 38.5092 64.1634 38.5391L64.6236 38.6712C64.7628 38.7095 64.902 38.7585 65.0412 38.8182C65.1804 38.8778 65.3075 38.9531 65.4226 39.044C65.5391 39.1335 65.6321 39.2436 65.7017 39.3743C65.7727 39.5036 65.8082 39.6591 65.8082 39.8409C65.8082 40.0739 65.7479 40.2834 65.6271 40.4695C65.5064 40.6555 65.3331 40.8033 65.1072 40.9126C64.8814 41.0206 64.6108 41.0746 64.2955 41.0746C63.9986 41.0746 63.7408 41.0256 63.522 40.9276C63.3033 40.8281 63.1314 40.6911 63.0064 40.5163C62.8814 40.3416 62.8111 40.1392 62.7955 39.9091H63.2045C63.2188 40.081 63.2756 40.2266 63.375 40.3459C63.4744 40.4652 63.6037 40.5561 63.7628 40.6186C63.9219 40.6797 64.0994 40.7102 64.2955 40.7102C64.5128 40.7102 64.706 40.674 64.875 40.6016C65.0455 40.5277 65.179 40.4254 65.2756 40.2947C65.3736 40.1626 65.4226 40.0092 65.4226 39.8345C65.4226 39.6868 65.3842 39.5632 65.3075 39.4638C65.2308 39.3629 65.1236 39.2784 64.9858 39.2102C64.8494 39.142 64.6911 39.0817 64.5107 39.0291L63.9886 38.8757C63.6463 38.7734 63.3807 38.6321 63.1918 38.4517C63.0028 38.2713 62.9084 38.0412 62.9084 37.7614C62.9084 37.527 62.9709 37.321 63.0959 37.1435C63.2223 36.9645 63.3928 36.8253 63.6072 36.7259C63.8232 36.625 64.0653 36.5746 64.3338 36.5746C64.6051 36.5746 64.8452 36.6243 65.054 36.7237C65.2628 36.8232 65.4283 36.9602 65.5504 37.1349C65.674 37.3082 65.7401 37.5057 65.7486 37.7273H65.3629Z" fill="white"/>
<g clip-path="url(#clip0_31_21)">
<path d="M0 0H7.16734V32.3706H0V0Z" fill="white"/>
<path d="M8.07458 20.9509C8.07458 13.3529 12.6562 8.00272 20.3226 8.00272C27.9889 8.00272 32.2076 13.1281 31.6179 21.94L15.1058 22.0749C15.4687 26.1212 17.7822 27.8297 20.7762 27.8297C24.0423 27.8297 24.9949 25.8515 25.4486 24.2779L31.7994 25.6267C30.8921 30.0327 27.5806 33 20.8216 33C12.8831 33 8.07458 28.7289 8.07458 20.9509ZM15.2873 18.2534L24.9496 18.1635C24.7681 14.9264 22.6814 13.5327 20.4133 13.5327C17.873 13.5327 15.9677 15.2411 15.2873 18.2534Z" fill="white"/>
<path d="M31.5726 20.8161C31.5726 13.173 36.1542 8.00272 44.0474 8.00272C49.9899 8.00272 53.6189 11.0599 54.6623 15.5558L47.9032 17.8038C47.6764 14.8365 45.8165 13.5776 43.6391 13.5776C40.6452 13.5776 38.9667 16.0504 38.9667 20.5014C38.9667 25.267 40.8266 27.6948 44.3195 27.6948C47.8125 27.6948 48.9012 25.1771 49.0827 23.109L55.4335 24.5027C54.9798 28.9986 51.7137 33 44.2288 33C36.0181 33 31.5726 28.2343 31.5726 20.8161Z" fill="white"/>
<path d="M56.5676 23.6036V14.297H53.1653L53.3014 8.67712H55.751C57.7016 8.63217 58.6089 8.22753 58.8811 6.69892L59.4708 3.37195H63.5988V8.63217H69.3599V14.5218H63.5988V23.2888C63.5988 25.357 64.5514 26.2561 66.6381 26.2561C67.7722 26.2561 68.8609 26.0313 69.5414 25.5818V32.2807C67.5908 32.8651 66.003 32.9551 64.7783 32.9551C59.1079 32.9551 56.5676 30.1226 56.5676 23.6036Z" fill="white"/>
<path d="M70.0857 21.4455V8.63214H77.4345V20.5013C77.4345 24.9523 78.75 27.1103 81.4718 27.1103C84.6926 27.1103 86.2802 23.5586 86.2802 19.1076V8.63214H93.5837V32.3706H87.7772L87.6411 25.0422H86.7339C85.373 30.7071 83.1502 33 78.6593 33C72.9436 33 70.0857 29.2684 70.0857 21.4455Z" fill="white"/>
<path d="M95.8065 8.63216H101.794L101.93 16.6798H102.838C103.427 10.4755 105.696 8.09265 110.685 8.09265C111.184 8.09265 111.729 8.09265 112.545 8.22753L112.273 15.9605C111.321 15.5109 110.096 15.376 109.234 15.376C105.65 15.376 103.609 17.3992 103.155 21.6253V32.3706H95.8065V8.63216Z" fill="white"/>
<path d="M111.271 20.9509C111.271 13.3529 115.852 8.00272 123.519 8.00272C131.185 8.00272 135.404 13.1281 134.814 21.94L118.302 22.0749C118.665 26.1212 120.978 27.8297 123.972 27.8297C127.238 27.8297 128.191 25.8515 128.645 24.2779L134.995 25.6267C134.088 30.0327 130.777 33 124.018 33C116.079 33 111.271 28.7289 111.271 20.9509ZM118.483 18.2534L128.146 18.1635C127.964 14.9264 125.877 13.5327 123.609 13.5327C121.069 13.5327 119.164 15.2411 118.483 18.2534Z" fill="white"/>
</g>
<defs>
<clipPath id="clip0_31_21">
<rect width="135" height="33" fill="white"/>
</clipPath>
</defs>
</svg>
