<svg width="68" height="66" viewBox="0 0 68 66" fill="none" xmlns="http://www.w3.org/2000/svg">
<path opacity="0.2" d="M8.5 66C6.1625 66 4.16146 65.1701 2.49688 63.5104C0.832292 61.8507 0 59.8555 0 57.5249V49.0498C0 47.8491 0.407292 46.8427 1.22188 46.0305C2.03646 45.2183 3.04583 44.8122 4.25 44.8122C5.45417 44.8122 6.46354 45.2183 7.27813 46.0305C8.09271 46.8427 8.5 47.8491 8.5 49.0498V57.5249H59.5V49.0498C59.5 47.8491 59.9073 46.8427 60.7219 46.0305C61.5365 45.2183 62.5458 44.8122 63.75 44.8122C64.9542 44.8122 65.9635 45.2183 66.7781 46.0305C67.5927 46.8427 68 47.8491 68 49.0498V57.5249C68 59.8555 67.1677 61.8507 65.5031 63.5104C63.8385 65.1701 61.8375 66 59.5 66H8.5ZM29.75 14.5136L21.7812 22.4591C20.9313 23.3066 19.9219 23.7127 18.7531 23.6774C17.5844 23.6421 16.575 23.2006 15.725 22.3531C14.9458 21.5056 14.5385 20.5169 14.5031 19.3868C14.4677 18.2568 14.875 17.2681 15.725 16.4205L31.025 1.16533C31.45 0.741573 31.9104 0.441413 32.4062 0.264848C32.9021 0.0882825 33.4333 0 34 0C34.5667 0 35.0979 0.0882825 35.5938 0.264848C36.0896 0.441413 36.55 0.741573 36.975 1.16533L52.275 16.4205C53.125 17.2681 53.5323 18.2568 53.4969 19.3868C53.4615 20.5169 53.0542 21.5056 52.275 22.3531C51.425 23.2006 50.4156 23.6421 49.2469 23.6774C48.0781 23.7127 47.0688 23.3066 46.2188 22.4591L38.25 14.5136V44.8122C38.25 46.0128 37.8427 47.0193 37.0281 47.8315C36.2135 48.6437 35.2042 49.0498 34 49.0498C32.7958 49.0498 31.7865 48.6437 30.9719 47.8315C30.1573 47.0193 29.75 46.0128 29.75 44.8122V14.5136Z" fill="#5F6368"/>
</svg>
